{
	"asset":{
		"copyright":"drsanti",
		"generator":"Khronos glTF Blender I/O v4.5.48",
		"version":"2.0"
	},
	"extensionsUsed":[
		"KHR_materials_transmission",
		"KHR_materials_emissive_strength"
	],
	"scene":0,
	"scenes":[
		{
			"name":"drone",
			"nodes":[
				15
			]
		}
	],
	"nodes":[
		{
			"mesh":0,
			"name":"arms",
			"translation":[
				-0.1751968413591385,
				0.21202296018600464,
				0.43250149488449097
			]
		},
		{
			"mesh":1,
			"name":"bottom stencil",
			"translation":[
				0,
				0.34432536363601685,
				-2.7589150704443455e-05
			]
		},
		{
			"mesh":2,
			"name":"camera_text",
			"translation":[
				0,
				0,
				-0.00034082995261996984
			]
		},
		{
			"children":[
				2
			],
			"mesh":3,
			"name":"Camera.001",
			"translation":[
				0,
				0.0005864737904630601,
				-0.20541734993457794
			]
		},
		{
			"children":[
				3
			],
			"mesh":4,
			"name":"Gimbal2",
			"rotation":[
				-0.1599731147289276,
				0,
				0,
				0.9871214032173157
			],
			"translation":[
				0,
				-0.17609775066375732,
				0.15654028952121735
			]
		},
		{
			"children":[
				4
			],
			"mesh":5,
			"name":"Gimbal1",
			"rotation":[
				0.15943989157676697,
				0,
				0,
				0.9872076511383057
			],
			"translation":[
				0,
				0.48842817544937134,
				-0.439651757478714
			]
		},
		{
			"mesh":6,
			"name":"HoneyComb grill",
			"translation":[
				-0.045727770775556564,
				0.4923953413963318,
				-0.525036096572876
			]
		},
		{
			"mesh":7,
			"name":"logo",
			"scale":[
				0.7429054379463196,
				0.7429054379463196,
				0.7429054379463196
			],
			"translation":[
				0,
				0.5946807861328125,
				-0.27815189957618713
			]
		},
		{
			"mesh":8,
			"name":"Main body",
			"translation":[
				0,
				0.5632101893424988,
				-0.006014675833284855
			]
		},
		{
			"mesh":9,
			"name":"sensors",
			"translation":[
				0,
				0.13295041024684906,
				0.004273194819688797
			]
		},
		{
			"mesh":10,
			"name":"ternion_logo",
			"rotation":[
				-0.010649323463439941,
				0,
				0,
				0.9999433755874634
			],
			"scale":[
				0.5714913010597229,
				0.5134063959121704,
				0.5134063959121704
			],
			"translation":[
				0,
				0.5785713791847229,
				-0.10590575635433197
			]
		},
		{
			"mesh":11,
			"name":"wing_back_left",
			"rotation":[
				0.01934770680963993,
				0.001012100139632821,
				0.052229877561330795,
				0.9984471797943115
			],
			"translation":[
				-0.8465744256973267,
				0.19181275367736816,
				0.9228886961936951
			]
		},
		{
			"mesh":12,
			"name":"wing_back_right",
			"rotation":[
				0.00739049119874835,
				-0.00035761806066147983,
				-0.04833107814192772,
				0.998803973197937
			],
			"translation":[
				0.8465749025344849,
				0.19181281328201294,
				0.9228889346122742
			]
		},
		{
			"mesh":13,
			"name":"wing_front_left",
			"rotation":[
				-0.018926599994301796,
				-0.0007467305986210704,
				0.03941627964377403,
				0.999043345451355
			],
			"translation":[
				-0.9542500376701355,
				0.36194920539855957,
				-0.4524520933628082
			]
		},
		{
			"mesh":14,
			"name":"wing_front_right",
			"rotation":[
				-0.01569487154483795,
				-0.0005949193146079779,
				-0.03787345066666603,
				0.9991590976715088
			],
			"translation":[
				0.9542513489723206,
				0.3619491159915924,
				-0.4524509906768799
			]
		},
		{
			"children":[
				0,
				1,
				5,
				6,
				7,
				8,
				9,
				10,
				11,
				12,
				13,
				14
			],
			"name":"TESA_Drone",
			"rotation":[
				0,
				1,
				0,
				7.549790126404332e-08
			],
			"scale":[
				2,
				2,
				2
			]
		}
	],
	"animations":[
		{
			"channels":[
				{
					"sampler":0,
					"target":{
						"node":5,
						"path":"translation"
					}
				},
				{
					"sampler":1,
					"target":{
						"node":5,
						"path":"rotation"
					}
				},
				{
					"sampler":2,
					"target":{
						"node":5,
						"path":"scale"
					}
				}
			],
			"name":"gimbal1Action",
			"samplers":[
				{
					"input":172,
					"interpolation":"STEP",
					"output":173
				},
				{
					"input":174,
					"interpolation":"LINEAR",
					"output":175
				},
				{
					"input":172,
					"interpolation":"STEP",
					"output":176
				}
			]
		},
		{
			"channels":[
				{
					"sampler":0,
					"target":{
						"node":4,
						"path":"translation"
					}
				},
				{
					"sampler":1,
					"target":{
						"node":4,
						"path":"rotation"
					}
				},
				{
					"sampler":2,
					"target":{
						"node":4,
						"path":"scale"
					}
				}
			],
			"name":"gimbal2Action",
			"samplers":[
				{
					"input":172,
					"interpolation":"STEP",
					"output":177
				},
				{
					"input":174,
					"interpolation":"LINEAR",
					"output":178
				},
				{
					"input":172,
					"interpolation":"STEP",
					"output":179
				}
			]
		},
		{
			"channels":[
				{
					"sampler":0,
					"target":{
						"node":3,
						"path":"translation"
					}
				},
				{
					"sampler":1,
					"target":{
						"node":3,
						"path":"rotation"
					}
				},
				{
					"sampler":2,
					"target":{
						"node":3,
						"path":"scale"
					}
				}
			],
			"name":"cameraAction",
			"samplers":[
				{
					"input":172,
					"interpolation":"STEP",
					"output":180
				},
				{
					"input":174,
					"interpolation":"LINEAR",
					"output":181
				},
				{
					"input":172,
					"interpolation":"STEP",
					"output":179
				}
			]
		},
		{
			"channels":[
				{
					"sampler":0,
					"target":{
						"node":11,
						"path":"translation"
					}
				},
				{
					"sampler":1,
					"target":{
						"node":11,
						"path":"rotation"
					}
				},
				{
					"sampler":2,
					"target":{
						"node":11,
						"path":"scale"
					}
				}
			],
			"name":"wing_back_leftAction",
			"samplers":[
				{
					"input":172,
					"interpolation":"STEP",
					"output":182
				},
				{
					"input":174,
					"interpolation":"LINEAR",
					"output":183
				},
				{
					"input":172,
					"interpolation":"STEP",
					"output":184
				}
			]
		},
		{
			"channels":[
				{
					"sampler":0,
					"target":{
						"node":12,
						"path":"translation"
					}
				},
				{
					"sampler":1,
					"target":{
						"node":12,
						"path":"rotation"
					}
				},
				{
					"sampler":2,
					"target":{
						"node":12,
						"path":"scale"
					}
				}
			],
			"name":"wing_back_rightAction",
			"samplers":[
				{
					"input":172,
					"interpolation":"STEP",
					"output":185
				},
				{
					"input":174,
					"interpolation":"LINEAR",
					"output":186
				},
				{
					"input":172,
					"interpolation":"STEP",
					"output":187
				}
			]
		},
		{
			"channels":[
				{
					"sampler":0,
					"target":{
						"node":13,
						"path":"translation"
					}
				},
				{
					"sampler":1,
					"target":{
						"node":13,
						"path":"rotation"
					}
				},
				{
					"sampler":2,
					"target":{
						"node":13,
						"path":"scale"
					}
				}
			],
			"name":"wing_front_leftAction",
			"samplers":[
				{
					"input":172,
					"interpolation":"STEP",
					"output":188
				},
				{
					"input":174,
					"interpolation":"LINEAR",
					"output":189
				},
				{
					"input":172,
					"interpolation":"STEP",
					"output":179
				}
			]
		},
		{
			"channels":[
				{
					"sampler":0,
					"target":{
						"node":14,
						"path":"translation"
					}
				},
				{
					"sampler":1,
					"target":{
						"node":14,
						"path":"rotation"
					}
				},
				{
					"sampler":2,
					"target":{
						"node":14,
						"path":"scale"
					}
				}
			],
			"name":"wing_front_rightAction",
			"samplers":[
				{
					"input":172,
					"interpolation":"STEP",
					"output":190
				},
				{
					"input":174,
					"interpolation":"LINEAR",
					"output":191
				},
				{
					"input":172,
					"interpolation":"STEP",
					"output":179
				}
			]
		}
	],
	"materials":[
		{
			"doubleSided":true,
			"name":"Plastic_Roughness",
			"pbrMetallicRoughness":{
				"baseColorTexture":{
					"index":0
				},
				"metallicFactor":0,
				"roughnessFactor":0.3299492597579956
			}
		},
		{
			"doubleSided":true,
			"name":"Motor_Body",
			"pbrMetallicRoughness":{
				"baseColorFactor":[
					0.05646197497844696,
					0.05581938475370407,
					0.05790720880031586,
					1
				],
				"metallicFactor":0.800000011920929,
				"roughnessFactor":0.20000000298023224
			}
		},
		{
			"doubleSided":true,
			"emissiveFactor":[
				1,
				0.005897230468690395,
				0
			],
			"extensions":{
				"KHR_materials_emissive_strength":{
					"emissiveStrength":4
				}
			},
			"name":"Light_RED",
			"pbrMetallicRoughness":{
				"baseColorFactor":[
					0.8002041578292847,
					0.03541677072644234,
					0,
					1
				],
				"metallicFactor":0,
				"roughnessFactor":0.5
			}
		},
		{
			"doubleSided":true,
			"emissiveFactor":[
				0.0498627546660005,
				1,
				0.03947295999915363
			],
			"extensions":{
				"KHR_materials_emissive_strength":{
					"emissiveStrength":3.200063943862915
				}
			},
			"name":"Light_Green",
			"pbrMetallicRoughness":{
				"baseColorFactor":[
					0.03989099711179733,
					0.8000156879425049,
					0.03157871589064598,
					1
				],
				"metallicFactor":0,
				"roughnessFactor":0.5
			}
		},
		{
			"doubleSided":true,
			"name":"Body_Black",
			"pbrMetallicRoughness":{
				"baseColorFactor":[
					0.03288149833679199,
					0.03288149833679199,
					0.03288149833679199,
					1
				],
				"metallicFactor":0,
				"roughnessFactor":0.30000001192092896
			}
		},
		{
			"doubleSided":true,
			"extensions":{
				"KHR_materials_transmission":{
					"transmissionFactor":0.46987950801849365
				}
			},
			"name":"Lens",
			"pbrMetallicRoughness":{
				"baseColorFactor":[
					0.0004674020456150174,
					0.08452819287776947,
					1,
					1
				],
				"roughnessFactor":0
			}
		},
		{
			"alphaMode":"BLEND",
			"doubleSided":true,
			"name":"TESA",
			"pbrMetallicRoughness":{
				"baseColorTexture":{
					"index":1
				},
				"metallicFactor":0,
				"roughnessFactor":0.5253807306289673
			}
		},
		{
			"doubleSided":true,
			"name":"Sensors",
			"pbrMetallicRoughness":{
				"baseColorFactor":[
					0.060005322098731995,
					0.7538281679153442,
					0.024639498442411423,
					1
				],
				"roughnessFactor":0
			}
		},
		{
			"doubleSided":true,
			"name":"Material.002",
			"pbrMetallicRoughness":{
				"baseColorFactor":[
					0.8002511262893677,
					0.016037467867136,
					0.5470603704452515,
					1
				],
				"metallicFactor":0,
				"roughnessFactor":0.29182153940200806
			}
		},
		{
			"doubleSided":true,
			"name":"Material.003",
			"pbrMetallicRoughness":{
				"baseColorFactor":[
					0.025022655725479126,
					0.08885280042886734,
					0.49618881940841675,
					1
				],
				"metallicFactor":0,
				"roughnessFactor":0.5
			}
		},
		{
			"doubleSided":true,
			"name":"Motor_Head",
			"pbrMetallicRoughness":{
				"baseColorFactor":[
					0.29578134417533875,
					0.29578134417533875,
					0.29578134417533875,
					1
				],
				"roughnessFactor":0.5
			}
		},
		{
			"alphaMode":"BLEND",
			"doubleSided":true,
			"name":"TERNION",
			"pbrMetallicRoughness":{
				"baseColorTexture":{
					"index":2
				},
				"metallicFactor":0,
				"roughnessFactor":0.5253807306289673
			}
		},
		{
			"doubleSided":true,
			"name":"Wing_GREEN",
			"pbrMetallicRoughness":{
				"baseColorFactor":[
					0.03711096569895744,
					0.6726785898208618,
					0.0860927626490593,
					1
				],
				"metallicFactor":0,
				"roughnessFactor":0.5
			}
		},
		{
			"doubleSided":true,
			"name":"Wing_RED",
			"pbrMetallicRoughness":{
				"baseColorFactor":[
					0.8957176208496094,
					0.8755298256874084,
					0,
					1
				],
				"metallicFactor":0,
				"roughnessFactor":0.5
			}
		}
	],
	"meshes":[
		{
			"name":"arms",
			"primitives":[
				{
					"attributes":{
						"POSITION":0,
						"NORMAL":1,
						"TEXCOORD_0":2
					},
					"indices":3,
					"material":0
				},
				{
					"attributes":{
						"POSITION":4,
						"NORMAL":5,
						"TEXCOORD_0":6
					},
					"indices":7,
					"material":1
				},
				{
					"attributes":{
						"POSITION":8,
						"NORMAL":9,
						"TEXCOORD_0":10
					},
					"indices":11,
					"material":2
				},
				{
					"attributes":{
						"POSITION":12,
						"NORMAL":13,
						"TEXCOORD_0":14
					},
					"indices":15,
					"material":3
				}
			]
		},
		{
			"name":"bottom stencil",
			"primitives":[
				{
					"attributes":{
						"POSITION":16,
						"NORMAL":17,
						"TEXCOORD_0":18
					},
					"indices":19
				},
				{
					"attributes":{
						"POSITION":20,
						"NORMAL":21,
						"TEXCOORD_0":22
					},
					"indices":23
				},
				{
					"attributes":{
						"POSITION":24,
						"NORMAL":25,
						"TEXCOORD_0":26
					},
					"indices":27
				}
			]
		},
		{
			"name":"camera_text",
			"primitives":[
				{
					"attributes":{
						"POSITION":28,
						"NORMAL":29,
						"TEXCOORD_0":30
					},
					"indices":31,
					"material":4
				}
			]
		},
		{
			"name":"camera",
			"primitives":[
				{
					"attributes":{
						"POSITION":32,
						"NORMAL":33,
						"TEXCOORD_0":34
					},
					"indices":35,
					"material":4
				},
				{
					"attributes":{
						"POSITION":36,
						"NORMAL":37,
						"TEXCOORD_0":38
					},
					"indices":39,
					"material":5
				}
			]
		},
		{
			"name":"gimbal2",
			"primitives":[
				{
					"attributes":{
						"POSITION":40,
						"NORMAL":41,
						"TEXCOORD_0":42
					},
					"indices":43,
					"material":4
				}
			]
		},
		{
			"name":"gimbal1",
			"primitives":[
				{
					"attributes":{
						"POSITION":44,
						"NORMAL":45,
						"TEXCOORD_0":46
					},
					"indices":47,
					"material":4
				}
			]
		},
		{
			"name":"HoneyComb grill",
			"primitives":[
				{
					"attributes":{
						"POSITION":48,
						"NORMAL":49,
						"TEXCOORD_0":50
					},
					"indices":51,
					"material":4
				}
			]
		},
		{
			"name":"Main body.001",
			"primitives":[
				{
					"attributes":{
						"POSITION":52,
						"NORMAL":53,
						"TEXCOORD_0":54
					},
					"indices":55,
					"material":6
				}
			]
		},
		{
			"name":"Main body",
			"primitives":[
				{
					"attributes":{
						"POSITION":56,
						"NORMAL":57,
						"TEXCOORD_0":58
					},
					"indices":59,
					"material":0
				},
				{
					"attributes":{
						"POSITION":60,
						"NORMAL":61,
						"TEXCOORD_0":62
					},
					"indices":63,
					"material":7
				},
				{
					"attributes":{
						"POSITION":64,
						"NORMAL":65,
						"TEXCOORD_0":66
					},
					"indices":67,
					"material":1
				},
				{
					"attributes":{
						"POSITION":68,
						"NORMAL":69,
						"TEXCOORD_0":70
					},
					"indices":71,
					"material":3
				},
				{
					"attributes":{
						"POSITION":72,
						"NORMAL":73,
						"TEXCOORD_0":74
					},
					"indices":75,
					"material":8
				},
				{
					"attributes":{
						"POSITION":76,
						"NORMAL":77,
						"TEXCOORD_0":78
					},
					"indices":79,
					"material":9
				},
				{
					"attributes":{
						"POSITION":80,
						"NORMAL":81,
						"TEXCOORD_0":82
					},
					"indices":83,
					"material":10
				},
				{
					"attributes":{
						"POSITION":84,
						"NORMAL":85,
						"TEXCOORD_0":86
					},
					"indices":87,
					"material":4
				},
				{
					"attributes":{
						"POSITION":88,
						"NORMAL":89,
						"TEXCOORD_0":90
					},
					"indices":91,
					"material":5
				}
			]
		},
		{
			"name":"sensors",
			"primitives":[
				{
					"attributes":{
						"POSITION":92,
						"NORMAL":93,
						"TEXCOORD_0":94
					},
					"indices":95,
					"material":1
				},
				{
					"attributes":{
						"POSITION":96,
						"NORMAL":97,
						"TEXCOORD_0":98
					},
					"indices":99,
					"material":7
				}
			]
		},
		{
			"name":"Main body.002",
			"primitives":[
				{
					"attributes":{
						"POSITION":100,
						"NORMAL":101,
						"TEXCOORD_0":102
					},
					"indices":103,
					"material":11
				}
			]
		},
		{
			"name":"wing_back_left",
			"primitives":[
				{
					"attributes":{
						"POSITION":104,
						"NORMAL":105,
						"TEXCOORD_0":106,
						"COLOR_0":107,
						"COLOR_1":108
					},
					"indices":109,
					"material":10
				},
				{
					"attributes":{
						"POSITION":110,
						"NORMAL":111,
						"TEXCOORD_0":112,
						"COLOR_0":113,
						"COLOR_1":114
					},
					"indices":115,
					"material":12
				},
				{
					"attributes":{
						"POSITION":116,
						"NORMAL":117,
						"TEXCOORD_0":118,
						"COLOR_0":119,
						"COLOR_1":120
					},
					"indices":121,
					"material":1
				},
				{
					"attributes":{
						"POSITION":122,
						"NORMAL":123,
						"TEXCOORD_0":124,
						"COLOR_0":125,
						"COLOR_1":126
					},
					"indices":127,
					"material":13
				}
			]
		},
		{
			"name":"wing_back_right",
			"primitives":[
				{
					"attributes":{
						"POSITION":128,
						"NORMAL":129,
						"TEXCOORD_0":130
					},
					"indices":131,
					"material":10
				},
				{
					"attributes":{
						"POSITION":132,
						"NORMAL":133,
						"TEXCOORD_0":134
					},
					"indices":135,
					"material":12
				},
				{
					"attributes":{
						"POSITION":136,
						"NORMAL":137,
						"TEXCOORD_0":138
					},
					"indices":139,
					"material":13
				}
			]
		},
		{
			"name":"wing_front_left",
			"primitives":[
				{
					"attributes":{
						"POSITION":140,
						"NORMAL":141,
						"TEXCOORD_0":142
					},
					"indices":143,
					"material":10
				},
				{
					"attributes":{
						"POSITION":144,
						"NORMAL":145,
						"TEXCOORD_0":146
					},
					"indices":147,
					"material":13
				},
				{
					"attributes":{
						"POSITION":148,
						"NORMAL":149,
						"TEXCOORD_0":150
					},
					"indices":151,
					"material":1
				},
				{
					"attributes":{
						"POSITION":152,
						"NORMAL":153,
						"TEXCOORD_0":154
					},
					"indices":155,
					"material":12
				}
			]
		},
		{
			"name":"wing_front_right",
			"primitives":[
				{
					"attributes":{
						"POSITION":156,
						"NORMAL":157,
						"TEXCOORD_0":158
					},
					"indices":159,
					"material":10
				},
				{
					"attributes":{
						"POSITION":160,
						"NORMAL":161,
						"TEXCOORD_0":162
					},
					"indices":163,
					"material":13
				},
				{
					"attributes":{
						"POSITION":164,
						"NORMAL":165,
						"TEXCOORD_0":166
					},
					"indices":167,
					"material":1
				},
				{
					"attributes":{
						"POSITION":168,
						"NORMAL":169,
						"TEXCOORD_0":170
					},
					"indices":171,
					"material":12
				}
			]
		}
	],
	"textures":[
		{
			"sampler":0,
			"source":0
		},
		{
			"sampler":0,
			"source":1
		},
		{
			"sampler":0,
			"source":2
		}
	],
	"images":[
		{
			"mimeType":"image/jpeg",
			"name":"Aluminium_sand_Roughness",
			"uri":"Aluminium_sand_Roughness.jpg"
		},
		{
			"mimeType":"image/png",
			"name":"tesa",
			"uri":"tesa.png"
		},
		{
			"mimeType":"image/png",
			"name":"quarernion_ternion",
			"uri":"quarernion_ternion.png"
		}
	],
	"accessors":[
		{
			"bufferView":0,
			"componentType":5126,
			"count":16274,
			"max":[
				1.193767786026001,
				0.23060457408428192,
				0.5577870607376099
			],
			"min":[
				-0.8433738946914673,
				-0.2136159986257553,
				-0.952704906463623
			],
			"type":"VEC3"
		},
		{
			"bufferView":1,
			"componentType":5126,
			"count":16274,
			"type":"VEC3"
		},
		{
			"bufferView":2,
			"componentType":5126,
			"count":16274,
			"type":"VEC2"
		},
		{
			"bufferView":3,
			"componentType":5123,
			"count":65046,
			"type":"SCALAR"
		},
		{
			"bufferView":4,
			"componentType":5126,
			"count":2077,
			"max":[
				1.1969923973083496,
				0.19227921962738037,
				0.5583294034004211
			],
			"min":[
				-0.8465984463691711,
				-0.08749523013830185,
				-0.9532010555267334
			],
			"type":"VEC3"
		},
		{
			"bufferView":5,
			"componentType":5126,
			"count":2077,
			"type":"VEC3"
		},
		{
			"bufferView":6,
			"componentType":5126,
			"count":2077,
			"type":"VEC2"
		},
		{
			"bufferView":7,
			"componentType":5123,
			"count":8016,
			"type":"SCALAR"
		},
		{
			"bufferView":8,
			"componentType":5126,
			"count":373,
			"max":[
				1.2002410888671875,
				0.048790112137794495,
				-0.8750005960464478
			],
			"min":[
				-0.8498471975326538,
				-0.022119417786598206,
				-0.915690541267395
			],
			"type":"VEC3"
		},
		{
			"bufferView":9,
			"componentType":5126,
			"count":373,
			"type":"VEC3"
		},
		{
			"bufferView":10,
			"componentType":5126,
			"count":373,
			"type":"VEC2"
		},
		{
			"bufferView":11,
			"componentType":5123,
			"count":1344,
			"type":"SCALAR"
		},
		{
			"bufferView":12,
			"componentType":5126,
			"count":355,
			"max":[
				1.0783872604370117,
				-0.12206081300973892,
				0.5450917482376099
			],
			"min":[
				-0.7279937267303467,
				-0.19305045902729034,
				0.5064322352409363
			],
			"type":"VEC3"
		},
		{
			"bufferView":13,
			"componentType":5126,
			"count":355,
			"type":"VEC3"
		},
		{
			"bufferView":14,
			"componentType":5126,
			"count":355,
			"type":"VEC2"
		},
		{
			"bufferView":15,
			"componentType":5123,
			"count":1344,
			"type":"SCALAR"
		},
		{
			"bufferView":16,
			"componentType":5126,
			"count":155,
			"max":[
				0.06968840956687927,
				-0.19252707064151764,
				-0.0851055309176445
			],
			"min":[
				-0.06968840956687927,
				-0.19853466749191284,
				-0.14530615508556366
			],
			"type":"VEC3"
		},
		{
			"bufferView":17,
			"componentType":5126,
			"count":155,
			"type":"VEC3"
		},
		{
			"bufferView":18,
			"componentType":5126,
			"count":155,
			"type":"VEC2"
		},
		{
			"bufferView":19,
			"componentType":5123,
			"count":588,
			"type":"SCALAR"
		},
		{
			"bufferView":20,
			"componentType":5126,
			"count":128,
			"max":[
				0.06542699784040451,
				-0.19295018911361694,
				-0.08934563398361206
			],
			"min":[
				-0.06542699784040451,
				-0.19811154901981354,
				-0.14106611907482147
			],
			"type":"VEC3"
		},
		{
			"bufferView":21,
			"componentType":5126,
			"count":128,
			"type":"VEC3"
		},
		{
			"bufferView":22,
			"componentType":5126,
			"count":128,
			"type":"VEC2"
		},
		{
			"bufferView":23,
			"componentType":5123,
			"count":384,
			"type":"SCALAR"
		},
		{
			"bufferView":24,
			"componentType":5126,
			"count":64,
			"max":[
				0.05083513632416725,
				-0.19439905881881714,
				-0.10386427491903305
			],
			"min":[
				-0.05083513632416725,
				-0.19666269421577454,
				-0.12654748558998108
			],
			"type":"VEC3"
		},
		{
			"bufferView":25,
			"componentType":5126,
			"count":64,
			"type":"VEC3"
		},
		{
			"bufferView":26,
			"componentType":5126,
			"count":64,
			"type":"VEC2"
		},
		{
			"bufferView":27,
			"componentType":5123,
			"count":180,
			"type":"SCALAR"
		},
		{
			"bufferView":28,
			"componentType":5126,
			"count":22,
			"max":[
				0.11295310407876968,
				0.10980673134326935,
				-0.09370141476392746
			],
			"min":[
				0.04524737969040871,
				0.021412132307887077,
				-0.10100121051073074
			],
			"type":"VEC3"
		},
		{
			"bufferView":29,
			"componentType":5126,
			"count":22,
			"type":"VEC3"
		},
		{
			"bufferView":30,
			"componentType":5126,
			"count":22,
			"type":"VEC2"
		},
		{
			"bufferView":31,
			"componentType":5123,
			"count":78,
			"type":"SCALAR"
		},
		{
			"bufferView":32,
			"componentType":5126,
			"count":3356,
			"max":[
				0.11295310407876968,
				0.11407177150249481,
				0.1265266090631485
			],
			"min":[
				-0.11295313388109207,
				-0.11679067462682724,
				-0.10145271569490433
			],
			"type":"VEC3"
		},
		{
			"bufferView":33,
			"componentType":5126,
			"count":3356,
			"type":"VEC3"
		},
		{
			"bufferView":34,
			"componentType":5126,
			"count":3356,
			"type":"VEC2"
		},
		{
			"bufferView":35,
			"componentType":5123,
			"count":15156,
			"type":"SCALAR"
		},
		{
			"bufferView":36,
			"componentType":5126,
			"count":192,
			"max":[
				0.08171281218528748,
				0.08211720734834671,
				-0.08163490146398544
			],
			"min":[
				-0.08388461172580719,
				-0.06307581812143326,
				-0.09008071571588516
			],
			"type":"VEC3"
		},
		{
			"bufferView":37,
			"componentType":5126,
			"count":192,
			"type":"VEC3"
		},
		{
			"bufferView":38,
			"componentType":5126,
			"count":192,
			"type":"VEC2"
		},
		{
			"bufferView":39,
			"componentType":5123,
			"count":831,
			"type":"SCALAR"
		},
		{
			"bufferView":40,
			"componentType":5126,
			"count":1450,
			"max":[
				0.1886894702911377,
				0.06716258078813553,
				0.00018996764265466481
			],
			"min":[
				-0.18868950009346008,
				-0.06653832644224167,
				-0.2719934284687042
			],
			"type":"VEC3"
		},
		{
			"bufferView":41,
			"componentType":5126,
			"count":1450,
			"type":"VEC3"
		},
		{
			"bufferView":42,
			"componentType":5126,
			"count":1450,
			"type":"VEC2"
		},
		{
			"bufferView":43,
			"componentType":5123,
			"count":5760,
			"type":"SCALAR"
		},
		{
			"bufferView":44,
			"componentType":5126,
			"count":667,
			"max":[
				0.0690169557929039,
				0.00031153616146184504,
				0.22823239862918854
			],
			"min":[
				-0.0690169557929039,
				-0.22258315980434418,
				-0.06645498424768448
			],
			"type":"VEC3"
		},
		{
			"bufferView":45,
			"componentType":5126,
			"count":667,
			"type":"VEC3"
		},
		{
			"bufferView":46,
			"componentType":5126,
			"count":667,
			"type":"VEC2"
		},
		{
			"bufferView":47,
			"componentType":5123,
			"count":2790,
			"type":"SCALAR"
		},
		{
			"bufferView":48,
			"componentType":5126,
			"count":30729,
			"max":[
				0.20827867090702057,
				0.10011705756187439,
				0.8111212253570557
			],
			"min":[
				-0.11682330071926117,
				-0.30053192377090454,
				-0.009797502309083939
			],
			"type":"VEC3"
		},
		{
			"bufferView":49,
			"componentType":5126,
			"count":30729,
			"type":"VEC3"
		},
		{
			"bufferView":50,
			"componentType":5126,
			"count":30729,
			"type":"VEC2"
		},
		{
			"bufferView":51,
			"componentType":5123,
			"count":93441,
			"type":"SCALAR"
		},
		{
			"bufferView":52,
			"componentType":5126,
			"count":154,
			"max":[
				0.1258334517478943,
				0.004764374345541,
				0.09699669480323792
			],
			"min":[
				-0.1258334517478943,
				-0.007008712738752365,
				-0.10043853521347046
			],
			"type":"VEC3"
		},
		{
			"bufferView":53,
			"componentType":5126,
			"count":154,
			"type":"VEC3"
		},
		{
			"bufferView":54,
			"componentType":5126,
			"count":154,
			"type":"VEC2"
		},
		{
			"bufferView":55,
			"componentType":5123,
			"count":780,
			"type":"SCALAR"
		},
		{
			"bufferView":56,
			"componentType":5126,
			"count":53993,
			"max":[
				0.2409133017063141,
				0.035584911704063416,
				0.5419371128082275
			],
			"min":[
				-0.2409133017063141,
				-0.4721624255180359,
				-0.5712178945541382
			],
			"type":"VEC3"
		},
		{
			"bufferView":57,
			"componentType":5126,
			"count":53993,
			"type":"VEC3"
		},
		{
			"bufferView":58,
			"componentType":5126,
			"count":53993,
			"type":"VEC2"
		},
		{
			"bufferView":59,
			"componentType":5123,
			"count":204522,
			"type":"SCALAR"
		},
		{
			"bufferView":60,
			"componentType":5126,
			"count":848,
			"max":[
				0.1407541185617447,
				-0.0655314102768898,
				0.41403281688690186
			],
			"min":[
				-0.1407541185617447,
				-0.08482075482606888,
				0.36256706714630127
			],
			"type":"VEC3"
		},
		{
			"bufferView":61,
			"componentType":5126,
			"count":848,
			"type":"VEC3"
		},
		{
			"bufferView":62,
			"componentType":5126,
			"count":848,
			"type":"VEC2"
		},
		{
			"bufferView":63,
			"componentType":5123,
			"count":3012,
			"type":"SCALAR"
		},
		{
			"bufferView":64,
			"componentType":5126,
			"count":1984,
			"max":[
				0.14952968060970306,
				-0.05781066045165062,
				0.42367321252822876
			],
			"min":[
				-0.17046304047107697,
				-0.4216865003108978,
				-0.14291852712631226
			],
			"type":"VEC3"
		},
		{
			"bufferView":65,
			"componentType":5126,
			"count":1984,
			"type":"VEC3"
		},
		{
			"bufferView":66,
			"componentType":5126,
			"count":1984,
			"type":"VEC2"
		},
		{
			"bufferView":67,
			"componentType":5123,
			"count":6756,
			"type":"SCALAR"
		},
		{
			"bufferView":68,
			"componentType":5126,
			"count":177,
			"max":[
				0.023322096094489098,
				-0.27330365777015686,
				0.5399520993232727
			],
			"min":[
				-0.10131067037582397,
				-0.2877950966358185,
				0.5239765048027039
			],
			"type":"VEC3"
		},
		{
			"bufferView":69,
			"componentType":5126,
			"count":177,
			"type":"VEC3"
		},
		{
			"bufferView":70,
			"componentType":5126,
			"count":177,
			"type":"VEC2"
		},
		{
			"bufferView":71,
			"componentType":5123,
			"count":504,
			"type":"SCALAR"
		},
		{
			"bufferView":72,
			"componentType":5126,
			"count":1715,
			"max":[
				0.2182489037513733,
				0.0294482484459877,
				-0.48318204283714294
			],
			"min":[
				-0.2182489037513733,
				-0.09303106367588043,
				-0.6144503951072693
			],
			"type":"VEC3"
		},
		{
			"bufferView":73,
			"componentType":5126,
			"count":1715,
			"type":"VEC3"
		},
		{
			"bufferView":74,
			"componentType":5126,
			"count":1715,
			"type":"VEC2"
		},
		{
			"bufferView":75,
			"componentType":5123,
			"count":7068,
			"type":"SCALAR"
		},
		{
			"bufferView":76,
			"componentType":5126,
			"count":526,
			"max":[
				0.15669967234134674,
				-0.11204810440540314,
				0.331939160823822
			],
			"min":[
				-0.19074119627475739,
				-0.3672768175601959,
				0.041000816971063614
			],
			"type":"VEC3"
		},
		{
			"bufferView":77,
			"componentType":5126,
			"count":526,
			"type":"VEC3"
		},
		{
			"bufferView":78,
			"componentType":5126,
			"count":526,
			"type":"VEC2"
		},
		{
			"bufferView":79,
			"componentType":5123,
			"count":1188,
			"type":"SCALAR"
		},
		{
			"bufferView":80,
			"componentType":5126,
			"count":1592,
			"max":[
				0.06782688200473785,
				-0.06736163049936295,
				0.3941875398159027
			],
			"min":[
				-0.06782688200473785,
				-0.10929424315690994,
				0.2624952793121338
			],
			"type":"VEC3"
		},
		{
			"bufferView":81,
			"componentType":5126,
			"count":1592,
			"type":"VEC3"
		},
		{
			"bufferView":82,
			"componentType":5126,
			"count":1592,
			"type":"VEC2"
		},
		{
			"bufferView":83,
			"componentType":5123,
			"count":6036,
			"type":"SCALAR"
		},
		{
			"bufferView":84,
			"componentType":5126,
			"count":1801,
			"max":[
				0.11762048304080963,
				-0.41462239623069763,
				0.4360859990119934
			],
			"min":[
				-0.11762048304080963,
				-0.48167693614959717,
				-0.13882534205913544
			],
			"type":"VEC3"
		},
		{
			"bufferView":85,
			"componentType":5126,
			"count":1801,
			"type":"VEC3"
		},
		{
			"bufferView":86,
			"componentType":5126,
			"count":1801,
			"type":"VEC2"
		},
		{
			"bufferView":87,
			"componentType":5123,
			"count":6936,
			"type":"SCALAR"
		},
		{
			"bufferView":88,
			"componentType":5126,
			"count":341,
			"max":[
				0.0684569701552391,
				-0.41389667987823486,
				0.43090102076530457
			],
			"min":[
				-0.0684569701552391,
				-0.4703037142753601,
				-0.13882532715797424
			],
			"type":"VEC3"
		},
		{
			"bufferView":89,
			"componentType":5126,
			"count":341,
			"type":"VEC3"
		},
		{
			"bufferView":90,
			"componentType":5126,
			"count":341,
			"type":"VEC2"
		},
		{
			"bufferView":91,
			"componentType":5123,
			"count":1572,
			"type":"SCALAR"
		},
		{
			"bufferView":92,
			"componentType":5126,
			"count":7692,
			"max":[
				0.1995479166507721,
				0.4411410093307495,
				0.5029764175415039
			],
			"min":[
				-0.1995478868484497,
				-0.0324455164372921,
				-0.5688636898994446
			],
			"type":"VEC3"
		},
		{
			"bufferView":93,
			"componentType":5126,
			"count":7692,
			"type":"VEC3"
		},
		{
			"bufferView":94,
			"componentType":5126,
			"count":7692,
			"type":"VEC2"
		},
		{
			"bufferView":95,
			"componentType":5123,
			"count":43452,
			"type":"SCALAR"
		},
		{
			"bufferView":96,
			"componentType":5126,
			"count":1014,
			"max":[
				0.19324250519275665,
				0.4235583543777466,
				0.4955095946788788
			],
			"min":[
				-0.19324247539043427,
				-0.03266499936580658,
				-0.563886821269989
			],
			"type":"VEC3"
		},
		{
			"bufferView":97,
			"componentType":5126,
			"count":1014,
			"type":"VEC3"
		},
		{
			"bufferView":98,
			"componentType":5126,
			"count":1014,
			"type":"VEC2"
		},
		{
			"bufferView":99,
			"componentType":5123,
			"count":5184,
			"type":"SCALAR"
		},
		{
			"bufferView":100,
			"componentType":5126,
			"count":234,
			"max":[
				0.13861405849456787,
				0.021017376333475113,
				0.18236693739891052
			],
			"min":[
				-0.13861405849456787,
				-0.030003812164068222,
				-0.14985959231853485
			],
			"type":"VEC3"
		},
		{
			"bufferView":101,
			"componentType":5126,
			"count":234,
			"type":"VEC3"
		},
		{
			"bufferView":102,
			"componentType":5126,
			"count":234,
			"type":"VEC2"
		},
		{
			"bufferView":103,
			"componentType":5123,
			"count":1224,
			"type":"SCALAR"
		},
		{
			"bufferView":104,
			"componentType":5126,
			"count":3898,
			"max":[
				0.0691608116030693,
				0.08103767782449722,
				0.0688968151807785
			],
			"min":[
				-0.06889097392559052,
				-0.012780781835317612,
				-0.06890541315078735
			],
			"type":"VEC3"
		},
		{
			"bufferView":105,
			"componentType":5126,
			"count":3898,
			"type":"VEC3"
		},
		{
			"bufferView":106,
			"componentType":5126,
			"count":3898,
			"type":"VEC2"
		},
		{
			"bufferView":107,
			"componentType":5121,
			"count":3898,
			"normalized":true,
			"type":"VEC4"
		},
		{
			"bufferView":108,
			"componentType":5123,
			"count":3898,
			"normalized":true,
			"type":"VEC4"
		},
		{
			"bufferView":109,
			"componentType":5123,
			"count":17268,
			"type":"SCALAR"
		},
		{
			"bufferView":110,
			"componentType":5126,
			"count":1568,
			"max":[
				0.49461838603019714,
				0.08771924674510956,
				0.5182849168777466
			],
			"min":[
				-0.5357699990272522,
				0.04287969321012497,
				-0.4703441858291626
			],
			"type":"VEC3"
		},
		{
			"bufferView":111,
			"componentType":5126,
			"count":1568,
			"type":"VEC3"
		},
		{
			"bufferView":112,
			"componentType":5126,
			"count":1568,
			"type":"VEC2"
		},
		{
			"bufferView":113,
			"componentType":5121,
			"count":1568,
			"normalized":true,
			"type":"VEC4"
		},
		{
			"bufferView":114,
			"componentType":5123,
			"count":1568,
			"normalized":true,
			"type":"VEC4"
		},
		{
			"bufferView":115,
			"componentType":5123,
			"count":7440,
			"type":"SCALAR"
		},
		{
			"bufferView":116,
			"componentType":5126,
			"count":1379,
			"max":[
				0.05804983898997307,
				0.08548249304294586,
				0.055493492633104324
			],
			"min":[
				-0.05645887181162834,
				-0.013696984387934208,
				-0.05556565523147583
			],
			"type":"VEC3"
		},
		{
			"bufferView":117,
			"componentType":5126,
			"count":1379,
			"type":"VEC3"
		},
		{
			"bufferView":118,
			"componentType":5126,
			"count":1379,
			"type":"VEC2"
		},
		{
			"bufferView":119,
			"componentType":5121,
			"count":1379,
			"normalized":true,
			"type":"VEC4"
		},
		{
			"bufferView":120,
			"componentType":5123,
			"count":1379,
			"normalized":true,
			"type":"VEC4"
		},
		{
			"bufferView":121,
			"componentType":5123,
			"count":6354,
			"type":"SCALAR"
		},
		{
			"bufferView":122,
			"componentType":5126,
			"count":306,
			"max":[
				0.5168988704681396,
				0.08731764554977417,
				0.5303269028663635
			],
			"min":[
				-0.5620317459106445,
				0.04350076615810394,
				-0.4802078902721405
			],
			"type":"VEC3"
		},
		{
			"bufferView":123,
			"componentType":5126,
			"count":306,
			"type":"VEC3"
		},
		{
			"bufferView":124,
			"componentType":5126,
			"count":306,
			"type":"VEC2"
		},
		{
			"bufferView":125,
			"componentType":5121,
			"count":306,
			"normalized":true,
			"type":"VEC4"
		},
		{
			"bufferView":126,
			"componentType":5123,
			"count":306,
			"normalized":true,
			"type":"VEC4"
		},
		{
			"bufferView":127,
			"componentType":5123,
			"count":1104,
			"type":"SCALAR"
		},
		{
			"bufferView":128,
			"componentType":5126,
			"count":3898,
			"max":[
				0.0688532218337059,
				0.0819113478064537,
				0.06947565823793411
			],
			"min":[
				-0.0688912644982338,
				-0.013206353411078453,
				-0.06883130222558975
			],
			"type":"VEC3"
		},
		{
			"bufferView":129,
			"componentType":5126,
			"count":3898,
			"type":"VEC3"
		},
		{
			"bufferView":130,
			"componentType":5126,
			"count":3898,
			"type":"VEC2"
		},
		{
			"bufferView":131,
			"componentType":5123,
			"count":17268,
			"type":"SCALAR"
		},
		{
			"bufferView":132,
			"componentType":5126,
			"count":1568,
			"max":[
				0.5394585132598877,
				0.08874931931495667,
				0.51612788438797
			],
			"min":[
				-0.49738365411758423,
				0.03824084997177124,
				-0.4649861454963684
			],
			"type":"VEC3"
		},
		{
			"bufferView":133,
			"componentType":5126,
			"count":1568,
			"type":"VEC3"
		},
		{
			"bufferView":134,
			"componentType":5126,
			"count":1568,
			"type":"VEC2"
		},
		{
			"bufferView":135,
			"componentType":5123,
			"count":7440,
			"type":"SCALAR"
		},
		{
			"bufferView":136,
			"componentType":5126,
			"count":1685,
			"max":[
				0.5659606456756592,
				0.08867806941270828,
				0.5280658006668091
			],
			"min":[
				-0.5199540257453918,
				-0.013841850683093071,
				-0.47461962699890137
			],
			"type":"VEC3"
		},
		{
			"bufferView":137,
			"componentType":5126,
			"count":1685,
			"type":"VEC3"
		},
		{
			"bufferView":138,
			"componentType":5126,
			"count":1685,
			"type":"VEC2"
		},
		{
			"bufferView":139,
			"componentType":5123,
			"count":7458,
			"type":"SCALAR"
		},
		{
			"bufferView":140,
			"componentType":5126,
			"count":3728,
			"max":[
				0.0691758543252945,
				0.0806182250380516,
				0.0691191777586937
			],
			"min":[
				-0.06906810402870178,
				-0.0126075753942132,
				-0.06907081604003906
			],
			"type":"VEC3"
		},
		{
			"bufferView":141,
			"componentType":5126,
			"count":3728,
			"type":"VEC3"
		},
		{
			"bufferView":142,
			"componentType":5126,
			"count":3728,
			"type":"VEC2"
		},
		{
			"bufferView":143,
			"componentType":5123,
			"count":16788,
			"type":"SCALAR"
		},
		{
			"bufferView":144,
			"componentType":5126,
			"count":1568,
			"max":[
				0.4738767147064209,
				0.08621221035718918,
				0.5380690097808838
			],
			"min":[
				-0.47323906421661377,
				0.04384747892618179,
				-0.5378733277320862
			],
			"type":"VEC3"
		},
		{
			"bufferView":145,
			"componentType":5126,
			"count":1568,
			"type":"VEC3"
		},
		{
			"bufferView":146,
			"componentType":5126,
			"count":1568,
			"type":"VEC2"
		},
		{
			"bufferView":147,
			"componentType":5123,
			"count":7440,
			"type":"SCALAR"
		},
		{
			"bufferView":148,
			"componentType":5126,
			"count":1379,
			"max":[
				0.05285847932100296,
				0.08543583005666733,
				0.05996410548686981
			],
			"min":[
				-0.052186548709869385,
				-0.0136369364336133,
				-0.0597112663090229
			],
			"type":"VEC3"
		},
		{
			"bufferView":149,
			"componentType":5126,
			"count":1379,
			"type":"VEC3"
		},
		{
			"bufferView":150,
			"componentType":5126,
			"count":1379,
			"type":"VEC2"
		},
		{
			"bufferView":151,
			"componentType":5123,
			"count":6354,
			"type":"SCALAR"
		},
		{
			"bufferView":152,
			"componentType":5126,
			"count":306,
			"max":[
				0.49475452303886414,
				0.08538969606161118,
				0.5508319139480591
			],
			"min":[
				-0.4941311478614807,
				0.04487591236829758,
				-0.5506244897842407
			],
			"type":"VEC3"
		},
		{
			"bufferView":153,
			"componentType":5126,
			"count":306,
			"type":"VEC3"
		},
		{
			"bufferView":154,
			"componentType":5126,
			"count":306,
			"type":"VEC2"
		},
		{
			"bufferView":155,
			"componentType":5123,
			"count":1104,
			"type":"SCALAR"
		},
		{
			"bufferView":156,
			"componentType":5126,
			"count":3728,
			"max":[
				0.06906668841838837,
				0.08100362122058868,
				0.06906712800264359
			],
			"min":[
				-0.06920303404331207,
				-0.01257775817066431,
				-0.06919391453266144
			],
			"type":"VEC3"
		},
		{
			"bufferView":157,
			"componentType":5126,
			"count":3728,
			"type":"VEC3"
		},
		{
			"bufferView":158,
			"componentType":5126,
			"count":3728,
			"type":"VEC2"
		},
		{
			"bufferView":159,
			"componentType":5123,
			"count":16788,
			"type":"SCALAR"
		},
		{
			"bufferView":160,
			"componentType":5126,
			"count":1568,
			"max":[
				0.4730760455131531,
				0.08725811541080475,
				0.5377552509307861
			],
			"min":[
				-0.4738631844520569,
				0.042255621403455734,
				-0.5383023619651794
			],
			"type":"VEC3"
		},
		{
			"bufferView":161,
			"componentType":5126,
			"count":1568,
			"type":"VEC3"
		},
		{
			"bufferView":162,
			"componentType":5126,
			"count":1568,
			"type":"VEC2"
		},
		{
			"bufferView":163,
			"componentType":5123,
			"count":7440,
			"type":"SCALAR"
		},
		{
			"bufferView":164,
			"componentType":5126,
			"count":1379,
			"max":[
				0.052099164575338364,
				0.08545954525470734,
				0.05945432931184769
			],
			"min":[
				-0.05292879790067673,
				-0.013666797429323196,
				-0.06023012474179268
			],
			"type":"VEC3"
		},
		{
			"bufferView":165,
			"componentType":5126,
			"count":1379,
			"type":"VEC3"
		},
		{
			"bufferView":166,
			"componentType":5126,
			"count":1379,
			"type":"VEC2"
		},
		{
			"bufferView":167,
			"componentType":5123,
			"count":6354,
			"type":"SCALAR"
		},
		{
			"bufferView":168,
			"componentType":5126,
			"count":306,
			"max":[
				0.4939635396003723,
				0.0868806540966034,
				0.5504979491233826
			],
			"min":[
				-0.4947330057621002,
				0.04286996275186539,
				-0.5510838031768799
			],
			"type":"VEC3"
		},
		{
			"bufferView":169,
			"componentType":5126,
			"count":306,
			"type":"VEC3"
		},
		{
			"bufferView":170,
			"componentType":5126,
			"count":306,
			"type":"VEC2"
		},
		{
			"bufferView":171,
			"componentType":5123,
			"count":1104,
			"type":"SCALAR"
		},
		{
			"bufferView":172,
			"componentType":5126,
			"count":2,
			"max":[
				2.125
			],
			"min":[
				0.041666666666666664
			],
			"type":"SCALAR"
		},
		{
			"bufferView":173,
			"componentType":5126,
			"count":2,
			"type":"VEC3"
		},
		{
			"bufferView":174,
			"componentType":5126,
			"count":51,
			"max":[
				2.125
			],
			"min":[
				0.041666666666666664
			],
			"type":"SCALAR"
		},
		{
			"bufferView":175,
			"componentType":5126,
			"count":51,
			"type":"VEC4"
		},
		{
			"bufferView":176,
			"componentType":5126,
			"count":2,
			"type":"VEC3"
		},
		{
			"bufferView":177,
			"componentType":5126,
			"count":2,
			"type":"VEC3"
		},
		{
			"bufferView":178,
			"componentType":5126,
			"count":51,
			"type":"VEC4"
		},
		{
			"bufferView":179,
			"componentType":5126,
			"count":2,
			"type":"VEC3"
		},
		{
			"bufferView":180,
			"componentType":5126,
			"count":2,
			"type":"VEC3"
		},
		{
			"bufferView":181,
			"componentType":5126,
			"count":51,
			"type":"VEC4"
		},
		{
			"bufferView":182,
			"componentType":5126,
			"count":2,
			"type":"VEC3"
		},
		{
			"bufferView":183,
			"componentType":5126,
			"count":51,
			"type":"VEC4"
		},
		{
			"bufferView":184,
			"componentType":5126,
			"count":2,
			"type":"VEC3"
		},
		{
			"bufferView":185,
			"componentType":5126,
			"count":2,
			"type":"VEC3"
		},
		{
			"bufferView":186,
			"componentType":5126,
			"count":51,
			"type":"VEC4"
		},
		{
			"bufferView":187,
			"componentType":5126,
			"count":2,
			"type":"VEC3"
		},
		{
			"bufferView":188,
			"componentType":5126,
			"count":2,
			"type":"VEC3"
		},
		{
			"bufferView":189,
			"componentType":5126,
			"count":51,
			"type":"VEC4"
		},
		{
			"bufferView":190,
			"componentType":5126,
			"count":2,
			"type":"VEC3"
		},
		{
			"bufferView":191,
			"componentType":5126,
			"count":51,
			"type":"VEC4"
		}
	],
	"bufferViews":[
		{
			"buffer":0,
			"byteLength":195288,
			"byteOffset":0,
			"target":34962
		},
		{
			"buffer":0,
			"byteLength":195288,
			"byteOffset":195288,
			"target":34962
		},
		{
			"buffer":0,
			"byteLength":130192,
			"byteOffset":390576,
			"target":34962
		},
		{
			"buffer":0,
			"byteLength":130092,
			"byteOffset":520768,
			"target":34963
		},
		{
			"buffer":0,
			"byteLength":24924,
			"byteOffset":650860,
			"target":34962
		},
		{
			"buffer":0,
			"byteLength":24924,
			"byteOffset":675784,
			"target":34962
		},
		{
			"buffer":0,
			"byteLength":16616,
			"byteOffset":700708,
			"target":34962
		},
		{
			"buffer":0,
			"byteLength":16032,
			"byteOffset":717324,
			"target":34963
		},
		{
			"buffer":0,
			"byteLength":4476,
			"byteOffset":733356,
			"target":34962
		},
		{
			"buffer":0,
			"byteLength":4476,
			"byteOffset":737832,
			"target":34962
		},
		{
			"buffer":0,
			"byteLength":2984,
			"byteOffset":742308,
			"target":34962
		},
		{
			"buffer":0,
			"byteLength":2688,
			"byteOffset":745292,
			"target":34963
		},
		{
			"buffer":0,
			"byteLength":4260,
			"byteOffset":747980,
			"target":34962
		},
		{
			"buffer":0,
			"byteLength":4260,
			"byteOffset":752240,
			"target":34962
		},
		{
			"buffer":0,
			"byteLength":2840,
			"byteOffset":756500,
			"target":34962
		},
		{
			"buffer":0,
			"byteLength":2688,
			"byteOffset":759340,
			"target":34963
		},
		{
			"buffer":0,
			"byteLength":1860,
			"byteOffset":762028,
			"target":34962
		},
		{
			"buffer":0,
			"byteLength":1860,
			"byteOffset":763888,
			"target":34962
		},
		{
			"buffer":0,
			"byteLength":1240,
			"byteOffset":765748,
			"target":34962
		},
		{
			"buffer":0,
			"byteLength":1176,
			"byteOffset":766988,
			"target":34963
		},
		{
			"buffer":0,
			"byteLength":1536,
			"byteOffset":768164,
			"target":34962
		},
		{
			"buffer":0,
			"byteLength":1536,
			"byteOffset":769700,
			"target":34962
		},
		{
			"buffer":0,
			"byteLength":1024,
			"byteOffset":771236,
			"target":34962
		},
		{
			"buffer":0,
			"byteLength":768,
			"byteOffset":772260,
			"target":34963
		},
		{
			"buffer":0,
			"byteLength":768,
			"byteOffset":773028,
			"target":34962
		},
		{
			"buffer":0,
			"byteLength":768,
			"byteOffset":773796,
			"target":34962
		},
		{
			"buffer":0,
			"byteLength":512,
			"byteOffset":774564,
			"target":34962
		},
		{
			"buffer":0,
			"byteLength":360,
			"byteOffset":775076,
			"target":34963
		},
		{
			"buffer":0,
			"byteLength":264,
			"byteOffset":775436,
			"target":34962
		},
		{
			"buffer":0,
			"byteLength":264,
			"byteOffset":775700,
			"target":34962
		},
		{
			"buffer":0,
			"byteLength":176,
			"byteOffset":775964,
			"target":34962
		},
		{
			"buffer":0,
			"byteLength":156,
			"byteOffset":776140,
			"target":34963
		},
		{
			"buffer":0,
			"byteLength":40272,
			"byteOffset":776296,
			"target":34962
		},
		{
			"buffer":0,
			"byteLength":40272,
			"byteOffset":816568,
			"target":34962
		},
		{
			"buffer":0,
			"byteLength":26848,
			"byteOffset":856840,
			"target":34962
		},
		{
			"buffer":0,
			"byteLength":30312,
			"byteOffset":883688,
			"target":34963
		},
		{
			"buffer":0,
			"byteLength":2304,
			"byteOffset":914000,
			"target":34962
		},
		{
			"buffer":0,
			"byteLength":2304,
			"byteOffset":916304,
			"target":34962
		},
		{
			"buffer":0,
			"byteLength":1536,
			"byteOffset":918608,
			"target":34962
		},
		{
			"buffer":0,
			"byteLength":1662,
			"byteOffset":920144,
			"target":34963
		},
		{
			"buffer":0,
			"byteLength":17400,
			"byteOffset":921808,
			"target":34962
		},
		{
			"buffer":0,
			"byteLength":17400,
			"byteOffset":939208,
			"target":34962
		},
		{
			"buffer":0,
			"byteLength":11600,
			"byteOffset":956608,
			"target":34962
		},
		{
			"buffer":0,
			"byteLength":11520,
			"byteOffset":968208,
			"target":34963
		},
		{
			"buffer":0,
			"byteLength":8004,
			"byteOffset":979728,
			"target":34962
		},
		{
			"buffer":0,
			"byteLength":8004,
			"byteOffset":987732,
			"target":34962
		},
		{
			"buffer":0,
			"byteLength":5336,
			"byteOffset":995736,
			"target":34962
		},
		{
			"buffer":0,
			"byteLength":5580,
			"byteOffset":1001072,
			"target":34963
		},
		{
			"buffer":0,
			"byteLength":368748,
			"byteOffset":1006652,
			"target":34962
		},
		{
			"buffer":0,
			"byteLength":368748,
			"byteOffset":1375400,
			"target":34962
		},
		{
			"buffer":0,
			"byteLength":245832,
			"byteOffset":1744148,
			"target":34962
		},
		{
			"buffer":0,
			"byteLength":186882,
			"byteOffset":1989980,
			"target":34963
		},
		{
			"buffer":0,
			"byteLength":1848,
			"byteOffset":2176864,
			"target":34962
		},
		{
			"buffer":0,
			"byteLength":1848,
			"byteOffset":2178712,
			"target":34962
		},
		{
			"buffer":0,
			"byteLength":1232,
			"byteOffset":2180560,
			"target":34962
		},
		{
			"buffer":0,
			"byteLength":1560,
			"byteOffset":2181792,
			"target":34963
		},
		{
			"buffer":0,
			"byteLength":647916,
			"byteOffset":2183352,
			"target":34962
		},
		{
			"buffer":0,
			"byteLength":647916,
			"byteOffset":2831268,
			"target":34962
		},
		{
			"buffer":0,
			"byteLength":431944,
			"byteOffset":3479184,
			"target":34962
		},
		{
			"buffer":0,
			"byteLength":409044,
			"byteOffset":3911128,
			"target":34963
		},
		{
			"buffer":0,
			"byteLength":10176,
			"byteOffset":4320172,
			"target":34962
		},
		{
			"buffer":0,
			"byteLength":10176,
			"byteOffset":4330348,
			"target":34962
		},
		{
			"buffer":0,
			"byteLength":6784,
			"byteOffset":4340524,
			"target":34962
		},
		{
			"buffer":0,
			"byteLength":6024,
			"byteOffset":4347308,
			"target":34963
		},
		{
			"buffer":0,
			"byteLength":23808,
			"byteOffset":4353332,
			"target":34962
		},
		{
			"buffer":0,
			"byteLength":23808,
			"byteOffset":4377140,
			"target":34962
		},
		{
			"buffer":0,
			"byteLength":15872,
			"byteOffset":4400948,
			"target":34962
		},
		{
			"buffer":0,
			"byteLength":13512,
			"byteOffset":4416820,
			"target":34963
		},
		{
			"buffer":0,
			"byteLength":2124,
			"byteOffset":4430332,
			"target":34962
		},
		{
			"buffer":0,
			"byteLength":2124,
			"byteOffset":4432456,
			"target":34962
		},
		{
			"buffer":0,
			"byteLength":1416,
			"byteOffset":4434580,
			"target":34962
		},
		{
			"buffer":0,
			"byteLength":1008,
			"byteOffset":4435996,
			"target":34963
		},
		{
			"buffer":0,
			"byteLength":20580,
			"byteOffset":4437004,
			"target":34962
		},
		{
			"buffer":0,
			"byteLength":20580,
			"byteOffset":4457584,
			"target":34962
		},
		{
			"buffer":0,
			"byteLength":13720,
			"byteOffset":4478164,
			"target":34962
		},
		{
			"buffer":0,
			"byteLength":14136,
			"byteOffset":4491884,
			"target":34963
		},
		{
			"buffer":0,
			"byteLength":6312,
			"byteOffset":4506020,
			"target":34962
		},
		{
			"buffer":0,
			"byteLength":6312,
			"byteOffset":4512332,
			"target":34962
		},
		{
			"buffer":0,
			"byteLength":4208,
			"byteOffset":4518644,
			"target":34962
		},
		{
			"buffer":0,
			"byteLength":2376,
			"byteOffset":4522852,
			"target":34963
		},
		{
			"buffer":0,
			"byteLength":19104,
			"byteOffset":4525228,
			"target":34962
		},
		{
			"buffer":0,
			"byteLength":19104,
			"byteOffset":4544332,
			"target":34962
		},
		{
			"buffer":0,
			"byteLength":12736,
			"byteOffset":4563436,
			"target":34962
		},
		{
			"buffer":0,
			"byteLength":12072,
			"byteOffset":4576172,
			"target":34963
		},
		{
			"buffer":0,
			"byteLength":21612,
			"byteOffset":4588244,
			"target":34962
		},
		{
			"buffer":0,
			"byteLength":21612,
			"byteOffset":4609856,
			"target":34962
		},
		{
			"buffer":0,
			"byteLength":14408,
			"byteOffset":4631468,
			"target":34962
		},
		{
			"buffer":0,
			"byteLength":13872,
			"byteOffset":4645876,
			"target":34963
		},
		{
			"buffer":0,
			"byteLength":4092,
			"byteOffset":4659748,
			"target":34962
		},
		{
			"buffer":0,
			"byteLength":4092,
			"byteOffset":4663840,
			"target":34962
		},
		{
			"buffer":0,
			"byteLength":2728,
			"byteOffset":4667932,
			"target":34962
		},
		{
			"buffer":0,
			"byteLength":3144,
			"byteOffset":4670660,
			"target":34963
		},
		{
			"buffer":0,
			"byteLength":92304,
			"byteOffset":4673804,
			"target":34962
		},
		{
			"buffer":0,
			"byteLength":92304,
			"byteOffset":4766108,
			"target":34962
		},
		{
			"buffer":0,
			"byteLength":61536,
			"byteOffset":4858412,
			"target":34962
		},
		{
			"buffer":0,
			"byteLength":86904,
			"byteOffset":4919948,
			"target":34963
		},
		{
			"buffer":0,
			"byteLength":12168,
			"byteOffset":5006852,
			"target":34962
		},
		{
			"buffer":0,
			"byteLength":12168,
			"byteOffset":5019020,
			"target":34962
		},
		{
			"buffer":0,
			"byteLength":8112,
			"byteOffset":5031188,
			"target":34962
		},
		{
			"buffer":0,
			"byteLength":10368,
			"byteOffset":5039300,
			"target":34963
		},
		{
			"buffer":0,
			"byteLength":2808,
			"byteOffset":5049668,
			"target":34962
		},
		{
			"buffer":0,
			"byteLength":2808,
			"byteOffset":5052476,
			"target":34962
		},
		{
			"buffer":0,
			"byteLength":1872,
			"byteOffset":5055284,
			"target":34962
		},
		{
			"buffer":0,
			"byteLength":2448,
			"byteOffset":5057156,
			"target":34963
		},
		{
			"buffer":0,
			"byteLength":46776,
			"byteOffset":5059604,
			"target":34962
		},
		{
			"buffer":0,
			"byteLength":46776,
			"byteOffset":5106380,
			"target":34962
		},
		{
			"buffer":0,
			"byteLength":31184,
			"byteOffset":5153156,
			"target":34962
		},
		{
			"buffer":0,
			"byteLength":15592,
			"byteOffset":5184340,
			"target":34962
		},
		{
			"buffer":0,
			"byteLength":31184,
			"byteOffset":5199932,
			"target":34962
		},
		{
			"buffer":0,
			"byteLength":34536,
			"byteOffset":5231116,
			"target":34963
		},
		{
			"buffer":0,
			"byteLength":18816,
			"byteOffset":5265652,
			"target":34962
		},
		{
			"buffer":0,
			"byteLength":18816,
			"byteOffset":5284468,
			"target":34962
		},
		{
			"buffer":0,
			"byteLength":12544,
			"byteOffset":5303284,
			"target":34962
		},
		{
			"buffer":0,
			"byteLength":6272,
			"byteOffset":5315828,
			"target":34962
		},
		{
			"buffer":0,
			"byteLength":12544,
			"byteOffset":5322100,
			"target":34962
		},
		{
			"buffer":0,
			"byteLength":14880,
			"byteOffset":5334644,
			"target":34963
		},
		{
			"buffer":0,
			"byteLength":16548,
			"byteOffset":5349524,
			"target":34962
		},
		{
			"buffer":0,
			"byteLength":16548,
			"byteOffset":5366072,
			"target":34962
		},
		{
			"buffer":0,
			"byteLength":11032,
			"byteOffset":5382620,
			"target":34962
		},
		{
			"buffer":0,
			"byteLength":5516,
			"byteOffset":5393652,
			"target":34962
		},
		{
			"buffer":0,
			"byteLength":11032,
			"byteOffset":5399168,
			"target":34962
		},
		{
			"buffer":0,
			"byteLength":12708,
			"byteOffset":5410200,
			"target":34963
		},
		{
			"buffer":0,
			"byteLength":3672,
			"byteOffset":5422908,
			"target":34962
		},
		{
			"buffer":0,
			"byteLength":3672,
			"byteOffset":5426580,
			"target":34962
		},
		{
			"buffer":0,
			"byteLength":2448,
			"byteOffset":5430252,
			"target":34962
		},
		{
			"buffer":0,
			"byteLength":1224,
			"byteOffset":5432700,
			"target":34962
		},
		{
			"buffer":0,
			"byteLength":2448,
			"byteOffset":5433924,
			"target":34962
		},
		{
			"buffer":0,
			"byteLength":2208,
			"byteOffset":5436372,
			"target":34963
		},
		{
			"buffer":0,
			"byteLength":46776,
			"byteOffset":5438580,
			"target":34962
		},
		{
			"buffer":0,
			"byteLength":46776,
			"byteOffset":5485356,
			"target":34962
		},
		{
			"buffer":0,
			"byteLength":31184,
			"byteOffset":5532132,
			"target":34962
		},
		{
			"buffer":0,
			"byteLength":34536,
			"byteOffset":5563316,
			"target":34963
		},
		{
			"buffer":0,
			"byteLength":18816,
			"byteOffset":5597852,
			"target":34962
		},
		{
			"buffer":0,
			"byteLength":18816,
			"byteOffset":5616668,
			"target":34962
		},
		{
			"buffer":0,
			"byteLength":12544,
			"byteOffset":5635484,
			"target":34962
		},
		{
			"buffer":0,
			"byteLength":14880,
			"byteOffset":5648028,
			"target":34963
		},
		{
			"buffer":0,
			"byteLength":20220,
			"byteOffset":5662908,
			"target":34962
		},
		{
			"buffer":0,
			"byteLength":20220,
			"byteOffset":5683128,
			"target":34962
		},
		{
			"buffer":0,
			"byteLength":13480,
			"byteOffset":5703348,
			"target":34962
		},
		{
			"buffer":0,
			"byteLength":14916,
			"byteOffset":5716828,
			"target":34963
		},
		{
			"buffer":0,
			"byteLength":44736,
			"byteOffset":5731744,
			"target":34962
		},
		{
			"buffer":0,
			"byteLength":44736,
			"byteOffset":5776480,
			"target":34962
		},
		{
			"buffer":0,
			"byteLength":29824,
			"byteOffset":5821216,
			"target":34962
		},
		{
			"buffer":0,
			"byteLength":33576,
			"byteOffset":5851040,
			"target":34963
		},
		{
			"buffer":0,
			"byteLength":18816,
			"byteOffset":5884616,
			"target":34962
		},
		{
			"buffer":0,
			"byteLength":18816,
			"byteOffset":5903432,
			"target":34962
		},
		{
			"buffer":0,
			"byteLength":12544,
			"byteOffset":5922248,
			"target":34962
		},
		{
			"buffer":0,
			"byteLength":14880,
			"byteOffset":5934792,
			"target":34963
		},
		{
			"buffer":0,
			"byteLength":16548,
			"byteOffset":5949672,
			"target":34962
		},
		{
			"buffer":0,
			"byteLength":16548,
			"byteOffset":5966220,
			"target":34962
		},
		{
			"buffer":0,
			"byteLength":11032,
			"byteOffset":5982768,
			"target":34962
		},
		{
			"buffer":0,
			"byteLength":12708,
			"byteOffset":5993800,
			"target":34963
		},
		{
			"buffer":0,
			"byteLength":3672,
			"byteOffset":6006508,
			"target":34962
		},
		{
			"buffer":0,
			"byteLength":3672,
			"byteOffset":6010180,
			"target":34962
		},
		{
			"buffer":0,
			"byteLength":2448,
			"byteOffset":6013852,
			"target":34962
		},
		{
			"buffer":0,
			"byteLength":2208,
			"byteOffset":6016300,
			"target":34963
		},
		{
			"buffer":0,
			"byteLength":44736,
			"byteOffset":6018508,
			"target":34962
		},
		{
			"buffer":0,
			"byteLength":44736,
			"byteOffset":6063244,
			"target":34962
		},
		{
			"buffer":0,
			"byteLength":29824,
			"byteOffset":6107980,
			"target":34962
		},
		{
			"buffer":0,
			"byteLength":33576,
			"byteOffset":6137804,
			"target":34963
		},
		{
			"buffer":0,
			"byteLength":18816,
			"byteOffset":6171380,
			"target":34962
		},
		{
			"buffer":0,
			"byteLength":18816,
			"byteOffset":6190196,
			"target":34962
		},
		{
			"buffer":0,
			"byteLength":12544,
			"byteOffset":6209012,
			"target":34962
		},
		{
			"buffer":0,
			"byteLength":14880,
			"byteOffset":6221556,
			"target":34963
		},
		{
			"buffer":0,
			"byteLength":16548,
			"byteOffset":6236436,
			"target":34962
		},
		{
			"buffer":0,
			"byteLength":16548,
			"byteOffset":6252984,
			"target":34962
		},
		{
			"buffer":0,
			"byteLength":11032,
			"byteOffset":6269532,
			"target":34962
		},
		{
			"buffer":0,
			"byteLength":12708,
			"byteOffset":6280564,
			"target":34963
		},
		{
			"buffer":0,
			"byteLength":3672,
			"byteOffset":6293272,
			"target":34962
		},
		{
			"buffer":0,
			"byteLength":3672,
			"byteOffset":6296944,
			"target":34962
		},
		{
			"buffer":0,
			"byteLength":2448,
			"byteOffset":6300616,
			"target":34962
		},
		{
			"buffer":0,
			"byteLength":2208,
			"byteOffset":6303064,
			"target":34963
		},
		{
			"buffer":0,
			"byteLength":8,
			"byteOffset":6305272
		},
		{
			"buffer":0,
			"byteLength":24,
			"byteOffset":6305280
		},
		{
			"buffer":0,
			"byteLength":204,
			"byteOffset":6305304
		},
		{
			"buffer":0,
			"byteLength":816,
			"byteOffset":6305508
		},
		{
			"buffer":0,
			"byteLength":24,
			"byteOffset":6306324
		},
		{
			"buffer":0,
			"byteLength":24,
			"byteOffset":6306348
		},
		{
			"buffer":0,
			"byteLength":816,
			"byteOffset":6306372
		},
		{
			"buffer":0,
			"byteLength":24,
			"byteOffset":6307188
		},
		{
			"buffer":0,
			"byteLength":24,
			"byteOffset":6307212
		},
		{
			"buffer":0,
			"byteLength":816,
			"byteOffset":6307236
		},
		{
			"buffer":0,
			"byteLength":24,
			"byteOffset":6308052
		},
		{
			"buffer":0,
			"byteLength":816,
			"byteOffset":6308076
		},
		{
			"buffer":0,
			"byteLength":24,
			"byteOffset":6308892
		},
		{
			"buffer":0,
			"byteLength":24,
			"byteOffset":6308916
		},
		{
			"buffer":0,
			"byteLength":816,
			"byteOffset":6308940
		},
		{
			"buffer":0,
			"byteLength":24,
			"byteOffset":6309756
		},
		{
			"buffer":0,
			"byteLength":24,
			"byteOffset":6309780
		},
		{
			"buffer":0,
			"byteLength":816,
			"byteOffset":6309804
		},
		{
			"buffer":0,
			"byteLength":24,
			"byteOffset":6310620
		},
		{
			"buffer":0,
			"byteLength":816,
			"byteOffset":6310644
		}
	],
	"samplers":[
		{
			"magFilter":9729,
			"minFilter":9987
		}
	],
	"buffers":[
		{
			"byteLength":6311460,
			"uri":"drone.bin"
		}
	]
}
